#!OML:ASF H:\Male1\Project 1\Capture day 1\Session 1\Male1.ASF
:FULLY-SPECIFIED
:DEGREES
328
root 1.02573 24.4495 2.03913 -0.85998 -49.779 11.4488
lowerback 16.9291 0.917168 -0.661783
upperback 4.56213 0.574487 -5.81889
thorax -4.54886 0.212815 -5.95283
lowerneck -12.5134 8.39602 9.67029
upperneck 30.8432 11.23 -6.28048
head 13.4114 5.13466 -2.38208
rclavicle -6.36111e-015 -2.10712e-014
rhumerus -36.4644 35.2773 -85.957
rradius 71.1492
rwrist -12.2161
rhand -46.4819 46.9231
rfingers 7.12502
rthumb -19.2092 17.8518
lclavicle -6.36111e-015 -2.10712e-014
lhumerus 0.99521 -42.0937 68.7503
lradius 105.353
lwrist 12.3492
lhand -42.7645 15.9911
lfingers 7.12502
lthumb -15.6315 45.3796
rfemur -10.5677 1.12933 16.9054
rtibia 31.475
rfoot -17.1031 -29.4752
rtoes 9.8731
lfemur -30.5443 -2.11182 -32.7673
ltibia 50.3675
lfoot -24.8618 -5.86017
ltoes -2.65765
329
root 1.05802 24.3669 1.98261 -0.98231 -48.2022 12.0429
lowerback 17.4471 0.571574 -0.350595
upperback 4.61362 0.133263 -6.13226
thorax -4.81059 -0.0112976 -6.40001
lowerneck -12.7976 8.17552 10.0778
upperneck 30.5536 10.8544 -6.52124
head 13.3565 4.98914 -2.59452
rclavicle -1.49089e-014 4.21423e-014
rhumerus -37.5739 35.342 -85.809
rradius 73.1225
rwrist -13.2112
rhand -46.327 46.9037
rfingers 7.12502
rthumb -19.0602 17.8176
lclavicle -1.49089e-014 4.21423e-014
lhumerus 2.88723 -42.5316 67.15
lradius 105.91
lwrist 13.928
lhand -42.5587 16.1878
lfingers 7.12502
lthumb -15.4334 45.5916
rfemur -10.5513 2.27715 16.2262
rtibia 30.446
rfoot -18.5073 -29.9102
rtoes 10.7532
lfemur -31.8061 -2.72535 -33.2984
ltibia 51.6824
lfoot -24.7732 -7.11906
ltoes -1.29206
330
root 1.0899 24.2854 1.92405 -1.08264 -46.6986 12.6478
lowerback 17.9618 0.233659 -0.0525759
upperback 4.68264 -0.298188 -6.4515
thorax -5.05933 -0.231158 -6.84545
lowerneck -13.1937 7.95366 10.3975
upperneck 30.2836 10.4594 -6.6719
head 13.3166 4.83242 -2.75732
rclavicle 4.83047e-014 4.25399e-014
rhumerus -38.6429 35.3437 -85.6381
rradius 75.1254
rwrist -14.1012
rhand -46.2966 46.7631
rfingers 7.12502
rthumb -19.031 17.6741
lclavicle 4.83047e-014 4.25399e-014
lhumerus 4.92331 -42.8834 65.3719
lradius 106.514
lwrist 15.4356
lhand -42.3921 16.4592
lfingers 7.12502
lthumb -15.2729 45.8754
rfemur -10.5639 3.36679 15.5054
rtibia 29.4467
rfoot -19.9463 -30.2409
rtoes 12.0754
lfemur -33.0645 -3.18517 -33.8596
ltibia 52.9572
lfoot -24.6822 -8.40826
ltoes -0.0911581
331
root 1.12143 24.2049 1.86337 -1.15616 -45.2606 13.2419
lowerback 18.4715 -0.082696 0.145769
upperback 4.77644 -0.710864 -6.69714
thorax -5.28304 -0.440223 -7.15195
lowerneck -13.6741 7.74326 10.5771
upperneck 30.0228 10.1024 -6.8021
head 13.2894 4.67634 -2.88046
rclavicle 6.12257e-014 3.77691e-014
rhumerus -39.6607 35.3175 -85.3398
rradius 77.171
rwrist -14.872
rhand -46.3564 46.5139
rfingers 7.12502
rthumb -19.0884 17.4306
lclavicle 6.12257e-014 3.77691e-014
lhumerus 7.03634 -43.0827 63.5828
lradius 107.179
lwrist 16.7971
lhand -42.2228 16.862
lfingers 7.12502
lthumb -15.1098 46.2905
rfemur -10.5782 4.41051 14.7725
rtibia 28.4553
rfoot -21.4688 -30.4481
rtoes 14.1525
lfemur -34.3258 -3.47512 -34.4375
ltibia 54.2212
lfoot -24.5383 -9.784
ltoes 1.13312
332
root 1.15285 24.125 1.80071 -1.17434 -43.8844 13.7898
lowerback 18.9686 -0.373873 0.2328
upperback 4.88626 -1.0997 -6.83383
thorax -5.48134 -0.634724 -7.27285
lowerneck -14.1944 7.5421 10.6419
upperneck 29.7517 9.79647 -6.97017
head 13.2655 4.52374 -2.99021
rclavicle -6.97734e-014 4.96962e-014
rhumerus -40.6315 35.2675 -84.8793
rradius 79.2546
rwrist -15.5276
rhand -46.5039 46.2169
rfingers 7.12502
rthumb -19.2303 17.1476
lclavicle -6.97734e-014 4.96962e-014
lhumerus 9.13636 -43.1007 61.9052
lradius 107.91
lwrist 17.9883
lhand -41.9995 17.4238
lfingers 7.12502
lthumb -14.8947 46.8683
rfemur -10.5844 5.40613 14.0676
rtibia 27.452
rfoot -23.2947 -30.5994
rtoes 16.1827
lfemur -35.6227 -3.59411 -35.007
ltibia 55.5112
lfoot -24.2701 -11.3043
ltoes 2.66725
333
root 1.1843 24.0448 1.73633 -1.12708 -42.5788 14.2681
lowerback 19.4557 -0.635643 0.217452
upperback 4.99681 -1.45791 -6.85246
thorax -5.66635 -0.811075 -7.20426
lowerneck -14.7181 7.3499 10.6165
upperneck 29.4723 9.54451 -7.19303
head 13.2413 4.37738 -3.09784
rclavicle -3.99557e-014 -4.13472e-014
rhumerus -41.5663 35.2067 -84.2586
rradius 81.3649
rwrist -16.114
rhand -46.5173 45.9826
rfingers 7.12502
rthumb -19.2431 16.9147
lclavicle -3.99557e-014 -4.13472e-014
lhumerus 11.1346 -42.9429 60.4298
lradius 108.703
lwrist 19.0362
lhand -41.7077 18.1333
lfingers 7.12502
lthumb -14.6136 47.5984
rfemur -10.5696 6.37209 13.4222
rtibia 26.422
rfoot -25.4507 -30.6412
rtoes 18.3831
lfemur -36.9759 -3.55089 -35.5504
ltibia 56.8565
lfoot -23.8276 -12.9647
ltoes 4.64266
334
root 1.21558 23.963 1.67095 -1.0029 -41.3569 14.633
lowerback 19.9392 -0.875902 0.172411
upperback 5.09421 -1.78519 -6.77969
thorax -5.85482 -0.970333 -7.01934
lowerneck -15.212 7.17169 10.5491
upperneck 29.1939 9.3377 -7.45034
head 13.2155 4.2419 -3.20576
rclavicle -3.79679e-014 -1.86858e-014
rhumerus -42.4757 35.1278 -83.538
rradius 83.4787
rwrist -16.6716
rhand -46.4648 45.8526
rfingers 7.12502
rthumb -19.1927 16.7796
lclavicle -3.79679e-014 -1.86858e-014
lhumerus 12.9836 -42.6449 59.1611
lradius 109.54
lwrist 19.989
lhand -41.3547 18.9412
lfingers 7.12502
lthumb -14.2734 48.4307
rfemur -10.5151 7.33899 12.8817
rtibia 25.361
rfoot -27.8941 -30.5762
rtoes 20.9093
lfemur -38.3805 -3.37158 -36.0321
ltibia 58.2695
lfoot -23.2009 -14.7025
ltoes 7.04909
335
root 1.24621 23.8794 1.60577 -0.77573 -40.234 14.8592
lowerback 20.3808 -1.11545 0.242109
upperback 5.16739 -2.08662 -6.70666
thorax -6.04526 -1.11784 -6.90418
lowerneck -15.6581 7.01355 10.5385
upperneck 28.932 9.14353 -7.69593
head 13.1907 4.1199 -3.3185
rclavicle -1.73937e-014 3.00165e-014
rhumerus -43.3758 34.9589 -82.8651
rradius 85.5574
rwrist -17.2014
rhand -46.3872 45.8533
rfingers 7.12502
rthumb -19.1181 16.7729
lclavicle -1.73937e-014 3.00165e-014
lhumerus 14.7372 -42.2767 57.9449
lradius 110.383
lwrist 20.8779
lhand -40.9632 19.8018
lfingers 7.12502
lthumb -13.8962 49.3176
rfemur -10.4327 8.31177 12.4703
rtibia 24.2656
rfoot -30.4899 -30.4469
rtoes 23.6712
lfemur -39.8479 -3.09172 -36.4299
ltibia 59.7449
lfoot -22.4413 -16.415
ltoes 9.66349
336
root 1.27519 23.7931 1.54077 -0.528497 -39.2178 15.0385
lowerback 20.7832 -1.33455 0.340288
upperback 5.21707 -2.35493 -6.6477
thorax -6.23709 -1.24963 -6.82684
lowerneck -16.0448 6.87663 10.6383
upperneck 28.7091 8.96262 -7.97226
head 13.1794 4.01225 -3.46262
rclavicle 7.25564e-015 -5.22804e-014
rhumerus -44.2583 34.7231 -82.2292
rradius 87.5822
rwrist -17.7079
rhand -46.3322 45.9274
rfingers 7.12502
rthumb -19.0652 16.8418
lclavicle 7.25564e-015 -5.22804e-014
lhumerus 16.408 -41.8495 56.7971
lradius 111.195
lwrist 21.707
lhand -40.5522 20.6959
lfingers 7.12502
lthumb -13.5001 50.2383
rfemur -10.3002 9.27717 12.1189
rtibia 23.1377
rfoot -33.0938 -30.2767
rtoes 26.4075
lfemur -41.3363 -2.73096 -36.8133
ltibia 61.2603
lfoot -21.6393 -18.0179
ltoes 12.1854
